<svg xmlns="http://www.w3.org/2000/svg" xmlns:xlink="http://www.w3.org/1999/xlink" viewBox="0,0,256,256" width="100px" height="100px" fill-rule="nonzero" fill="#ffa07a"><g fill="#ffa07a" fill-rule="nonzero" stroke="none" stroke-width="1" stroke-linecap="butt" stroke-linejoin="miter" stroke-miterlimit="10" stroke-dasharray="" stroke-dashoffset="0" font-family="none" font-weight="none" font-size="none" text-anchor="none" style="mix-blend-mode: normal"><g transform="scale(5.12,5.12)"><path d="M8.96289,0c-0.27586,0.0105 -0.53512,0.13456 -0.71636,0.3428c-0.18124,0.20824 -0.26834,0.48213 -0.24067,0.75681l0.97656,9.77148c-0.113,0.29066 -0.28162,0.77725 -0.46289,1.68359c-0.26509,1.32543 -0.51953,3.38976 -0.51953,6.44531c0,4.06572 0.97689,7.06715 1.02539,7.21484c-0.02711,0.23505 -0.15235,1.0627 0.10938,2.92383c0.29476,2.09609 1.04093,5.18562 2.82422,9.26172c3.70304,8.46379 9.58984,11.49219 9.58984,11.49219c0.1399,0.07067 0.29444,0.10746 0.45117,0.10742h6c0.15673,0.00004 0.31128,-0.03676 0.45117,-0.10742c0,0 5.88681,-3.0284 9.58984,-11.49219c1.78329,-4.0761 2.52945,-7.16562 2.82422,-9.26172c0.26172,-1.86113 0.13649,-2.68878 0.10938,-2.92383c0.0485,-0.14769 1.02539,-3.14912 1.02539,-7.21484c0,-3.05556 -0.25444,-5.11988 -0.51953,-6.44531c-0.18127,-0.90635 -0.34989,-1.39294 -0.46289,-1.68359l0.97656,-9.77148c0.03609,-0.36234 -0.12761,-0.71565 -0.42736,-0.92239c-0.29975,-0.20674 -0.68817,-0.23422 -1.01405,-0.07175l-5.63477,2.81836c-0.64482,-0.25702 -4.84496,-1.88033 -9.78711,-1.91211c-0.04332,-0.00677 -0.08703,-0.01069 -0.13086,-0.01172c-4.99374,0 -9.26725,1.66446 -9.91797,1.92383l-5.63477,-2.81836c-0.15005,-0.07525 -0.31662,-0.11152 -0.48437,-0.10547zM10.17383,2.70508l2.57227,1.28711c-0.10336,0.06271 -0.30078,0.17578 -0.30078,0.17578c-0.27818,0.18547 -0.44529,0.49769 -0.44531,0.83203c0,0 0.00634,3.35617 0.47266,8.70898l-1.49609,-2.99219zM39.82617,2.70508l-0.80273,8.01172l-1.49609,2.99219c0.46631,-5.35281 0.47266,-8.70898 0.47266,-8.70898c-0.00003,-0.33434 -0.16713,-0.64656 -0.44531,-0.83203c0,0 -0.19742,-0.11307 -0.30078,-0.17578zM24,3.04492v8.95508c-0.0051,0.36064 0.18438,0.69608 0.49587,0.87789c0.3115,0.18181 0.69676,0.18181 1.00825,0c0.3115,-0.18181 0.50097,-0.51725 0.49587,-0.87789v-8.95508c2.24799,0.11527 4.34304,0.56356 5.93555,1.00977l-0.9082,11.54883l-4.79492,5.75586c-0.15008,0.17975 -0.23234,0.40646 -0.23242,0.64063v2v4.05859c-0.25615,-0.01164 -0.49956,-0.02764 -0.7793,-0.03125c-0.07232,-0.01729 -0.14635,-0.02646 -0.2207,-0.02734c-0.3643,0 -0.67883,0.01664 -1,0.03125v-4.03125v-2c-0.00009,-0.23417 -0.08234,-0.46088 -0.23242,-0.64062l-4.79492,-5.75586l-0.9082,-11.54883c1.59251,-0.44621 3.68756,-0.8945 5.93555,-1.00977zM16.10742,4.6582l0.89648,11.41992c0.01604,0.20665 0.0959,0.40321 0.22852,0.5625l4.67188,5.60547l-6.9375,-3.85352c-0.88379,-7.38791 -0.94158,-12.01676 -0.94727,-12.79297c0.24167,-0.14681 0.48524,-0.32535 1.35156,-0.67187c0.00261,-0.00064 0.00521,-0.00129 0.00781,-0.00195c0,0 0.30865,-0.11929 0.72852,-0.26758zM33.89258,4.6582c0.41986,0.14829 0.72852,0.26758 0.72852,0.26758c0.00519,0.002 0.0104,0.00395 0.01563,0.00586c0.85713,0.34356 1.10314,0.5218 1.34375,0.66797c-0.00573,0.77621 -0.06347,5.40506 -0.94727,12.79297l-6.9375,3.85352l4.67188,-5.60547c0.13262,-0.15929 0.21247,-0.35585 0.22852,-0.5625zM10.32227,13.88086l2.7832,5.56641c0.08985,0.18046 0.23214,0.32956 0.4082,0.42773l8.48633,4.71289v3.26758l-8.51367,-4.73047c-0.14884,-0.08235 -0.31623,-0.12537 -0.48633,-0.125h-2.66406c-0.18264,-1.10012 -0.33594,-2.46423 -0.33594,-4c0,-2.27412 0.14734,-3.93441 0.32227,-5.11914zM39.67773,13.88086c0.17492,1.18473 0.32227,2.84502 0.32227,5.11914c0,1.53577 -0.1533,2.89988 -0.33594,4h-2.66406c-0.1701,-0.00037 -0.33749,0.04265 -0.48633,0.125l-8.51367,4.73047v-3.26758l8.48633,-4.71289c0.17607,-0.09818 0.31835,-0.24727 0.4082,-0.42773zM11.86914,25h0.87109l7.07227,3.92969c-0.03279,0.01836 -0.07794,0.03895 -0.10742,0.05664c-0.00969,0.00581 -0.00803,0.00773 -0.01758,0.01367h-5.15234zM37.25977,25h0.87109l-2.66602,4h-5.15234c-0.00954,-0.00594 -0.00789,-0.00786 -0.01758,-0.01367c-0.02948,-0.01769 -0.07464,-0.03828 -0.10742,-0.05664zM10.96875,27.25586l2.19922,3.29883c0.18547,0.27818 0.49769,0.44528 0.83203,0.44531h5.2793l1.77148,5.31641c0.10963,0.3289 0.38178,0.57755 0.7192,0.65714c0.33743,0.07958 0.692,-0.02126 0.93705,-0.26651c0,0 0.10949,-0.12213 0.49023,-0.3125c0.38074,-0.19037 0.9694,-0.39453 1.80273,-0.39453c0.83333,0 1.42199,0.20416 1.80273,0.39453c0.38074,0.19037 0.49023,0.3125 0.49023,0.3125c0.24504,0.24525 0.59962,0.34609 0.93705,0.26651c0.33743,-0.07958 0.60957,-0.32824 0.7192,-0.65714l1.77148,-5.31641h5.2793c0.33434,-0.00003 0.64656,-0.16713 0.83203,-0.44531l2.19922,-3.29883c-0.01585,0.41506 -0.04942,0.91526 -0.14648,1.60547c-0.07316,0.52025 -0.18724,1.13202 -0.33594,1.80273c-0.06795,0.13762 -0.46119,0.92627 -1.03711,1.77539c-0.31391,0.46283 -0.66978,0.91337 -0.98242,1.20508c-0.31264,0.29171 -0.55935,0.35547 -0.5293,0.35547h-2c-0.37879,-0.00003 -0.72509,0.21395 -0.89453,0.55273l-3,6c-0.19241,0.38503 -0.11688,0.84997 0.1875,1.1543l2.13672,2.13672c-2.42303,2.94456 -4.58422,4.07738 -4.73828,4.15625h-5.38281c-0.15407,-0.07887 -2.31525,-1.21169 -4.73828,-4.15625l2.13672,-2.13672c0.30438,-0.30433 0.37991,-0.76927 0.1875,-1.1543l-3,-6c-0.16944,-0.33878 -0.51574,-0.55276 -0.89453,-0.55273h-2c0.03005,0 -0.21666,-0.06376 -0.5293,-0.35547c-0.31264,-0.29171 -0.66851,-0.74225 -0.98242,-1.20508c-0.57592,-0.84912 -0.96916,-1.63777 -1.03711,-1.77539c-0.1487,-0.67071 -0.26278,-1.28248 -0.33594,-1.80273c-0.09706,-0.69021 -0.13063,-1.19041 -0.14648,-1.60547zM25,30c1.91667,0 3.06009,0.24138 3.68359,0.44922c0.0523,0.01743 0.05248,0.02618 0.09766,0.04297l-1.35156,4.05273c-0.60969,-0.27395 -1.3788,-0.54492 -2.42969,-0.54492c-1.05089,0 -1.82,0.27097 -2.42969,0.54492l-1.35156,-4.05273c0.04518,-0.01679 0.04536,-0.02554 0.09766,-0.04297c0.6235,-0.20784 1.76693,-0.44922 3.68359,-0.44922zM13.05859,35.77539c0.27936,0.13156 0.58513,0.22461 0.94141,0.22461h1.38281l2.40039,4.80273l-1.42773,1.42773c-0.88467,-1.2825 -1.76688,-2.8079 -2.56445,-4.63086c-0.2843,-0.64983 -0.50163,-1.22995 -0.73242,-1.82422zM36.94141,35.77539c-0.23079,0.59427 -0.44812,1.17439 -0.73242,1.82422c-0.79757,1.82296 -1.67978,3.34836 -2.56445,4.63086l-1.42773,-1.42773l2.40039,-4.80273h1.38281c0.35628,0 0.66205,-0.09305 0.94141,-0.22461z"></path></g></g></svg>