<svg xmlns="http://www.w3.org/2000/svg" xmlns:xlink="http://www.w3.org/1999/xlink" viewBox="0,0,256,256" width="100px" height="100px" fill-rule="nonzero" fill="#ffa07a"><g fill="#ffa07a" fill-rule="nonzero" stroke="none" stroke-width="1" stroke-linecap="butt" stroke-linejoin="miter" stroke-miterlimit="10" stroke-dasharray="" stroke-dashoffset="0" font-family="none" font-weight="none" font-size="none" text-anchor="none" style="mix-blend-mode: normal"><g transform="scale(5.12,5.12)"><path d="M28,0.57422v2.65625c-3.426,-2.247 -7.80977,-2.23947 -8.00977,-2.23047l-1.46289,0.01563l0.84375,2.10352c-2.624,-0.328 -5.39697,0.14297 -5.54297,0.16797l-0.82812,0.14453v1.56836h-4.67187l2.16406,4.0332l-4.92578,1.07422l0.52539,1.13281c0.434,0.934 1.4558,3.22961 1.8418,4.09961l-1.13086,3.69727l0.72266,0.39063c0.7976,0.42972 1.61037,1.50789 2.28125,2.5918c-0.21069,0.04148 -0.40244,0.14968 -0.54687,0.30859l-2,2.19922c-0.16704,0.18392 -0.25964,0.42343 -0.25977,0.67188v3.30078c0.00003,0.14285 0.03067,0.28404 0.08984,0.41406l0.91016,2.00195v1.98438c0.00036,0.36414 0.19862,0.69931 0.51758,0.875l1.60937,0.88672c-0.07251,0.57841 -0.12695,0.98388 -0.12695,1.33789c0,1.73231 1.07347,3.13804 2.65039,6.7207c0.76591,1.73931 1.34168,3.18148 2.0918,4.30664c0.75011,1.12517 1.87252,1.97266 3.27734,1.97266h6.98047h6.98047c1.40449,0 2.52695,-0.8475 3.27734,-1.97266c0.75039,-1.12516 1.3263,-2.56715 2.0918,-4.30664c1.5769,-3.5826 2.65039,-4.98785 2.65039,-6.7207c0,-0.35401 -0.05445,-0.75945 -0.12695,-1.33789l1.60938,-0.88672c0.31896,-0.17569 0.51721,-0.51086 0.51758,-0.875v-1.98437l0.91016,-2.00195c0.05918,-0.13002 0.08981,-0.27121 0.08984,-0.41406v-3.30078c-0.00013,-0.24845 -0.09273,-0.48796 -0.25977,-0.67187l-2,-2.19922c-0.14875,-0.16294 -0.3472,-0.27213 -0.56445,-0.31055l1.82422,-1.99219v-4.16016l2.28516,-1.24609l-1.17578,-2.67383l1.54297,-2.94531h-3.65234v-3.97266l-3.4668,1.25977c-1.689,-2.75 -7.02741,-4.80456 -8.19141,-5.22656zM29.94922,18.20313l1.69336,2.76953l3.81836,-2.08203l1.53906,4.19727c0.00059,0.06397 0.01163,1.23135 0,2.9043c-0.00576,0.80639 0.10559,2.04717 0.24414,3.37305l-1.65625,1.69922l-0.00781,0.00977c-1.00584,1.08597 -1.58008,2.45426 -1.58008,3.87305v10.27539c-0.13834,0.25964 -0.2733,0.49597 -0.40625,0.69531c-0.56011,0.83984 -0.89177,1.08203 -1.61328,1.08203h-6.98047h-6.98047c-0.72217,0 -1.05339,-0.2422 -1.61328,-1.08203c-0.13284,-0.19926 -0.26794,-0.43563 -0.40625,-0.69531v-10.27539c0,-1.41878 -0.57425,-2.78704 -1.58008,-3.87305l-0.00781,-0.00977l-1.65625,-1.69922c0.13846,-1.32562 0.24992,-2.56678 0.24414,-3.37305c-0.00729,-1.04854 -0.00236,-1.29402 0,-1.82031l1.54297,-4.40625l0.4707,1.01563l2.66406,-1.46094l2.06055,3.0918l4.9668,-3.51953l2.24414,3.67383zM15.47461,23.6875l-0.78711,1.83789l0.91797,0.39453l2.49609,1.07031c-0.067,0.17004 -0.10143,0.35082 -0.10156,0.5332c0.00025,0.81555 0.67175,1.47656 1.5,1.47656c0.57432,-0.00103 1.09762,-0.32487 1.34766,-0.83398l0.875,0.375l-0.03906,0.10156c-0.00785,0.02059 -0.01501,0.04144 -0.02148,0.0625l-0.61719,2c-0.02963,0.09551 -0.04478,0.19492 -0.04492,0.29492v2c0.00006,0.55226 0.44774,0.99994 1,1c0.63125,0 1.14063,0.59961 1.14063,0.59961c0.18895,0.25216 0.48568,0.40053 0.80078,0.40039h2.11719c0.28689,0.00016 0.56004,-0.1229 0.75,-0.33789c0,0 0.76193,-0.66211 1.19141,-0.66211c0.55226,-0.00006 0.99994,-0.44774 1,-1v-2c-0.00015,-0.1 -0.01529,-0.19941 -0.04492,-0.29492l-0.61719,-2c-0.00647,-0.02106 -0.01364,-0.04191 -0.02148,-0.0625l-0.03906,-0.10156l0.87891,-0.37695c0.25253,0.51148 0.77332,0.83546 1.34375,0.83594c0.82843,0 1.5,-0.67157 1.5,-1.5c-0.00035,-0.17527 -0.03142,-0.34913 -0.0918,-0.51367l2.48633,-1.06641l0.91797,-0.39453l-0.78711,-1.83789l-0.91992,0.39258l-7,3c-0.49355,0.21194 -0.73154,0.77589 -0.53906,1.27734l0.36914,0.96875l0.56445,1.82422v1.1875c-0.65309,0.24979 -1.08926,0.41197 -1.33008,0.66211h-1.33594c-0.25566,-0.2672 -0.69665,-0.41073 -1.33398,-0.6543v-1.19531l0.56445,-1.82422l0.36914,-0.96875c0.19248,-0.50146 -0.04552,-1.06541 -0.53906,-1.27734l-7,-3zM10.44141,24h0.44727c0.03414,0.07226 0.08245,0.16686 0.11133,0.23047c-0.00224,0.53855 -0.0071,0.75599 0,1.77734c0.0069,0.95667 -0.23523,3.33415 -0.48633,5.46484c-0.04571,0.38788 -0.08251,0.68189 -0.12695,1.04883l-0.38672,-0.21289v-1.60937c-0.00031,-0.14219 -0.03094,-0.28269 -0.08984,-0.41211l-0.91016,-2.00391v-2.69727zM39,24h0.55859l1.44141,1.58594v2.69727l-0.91016,2.00391c-0.0589,0.12942 -0.08953,0.26992 -0.08984,0.41211v1.60938l-0.38672,0.21289c-0.04445,-0.36692 -0.08124,-0.66093 -0.12695,-1.04883c-0.2511,-2.13083 -0.49318,-4.50875 -0.48633,-5.46484c0.00802,-1.15379 0.00268,-1.49832 0,-2.00781zM12.47266,31.93945l0.48438,0.49805c0.69754,0.75501 1.04297,1.62621 1.04297,2.50977v5.90234c-1.23305,-2.73854 -2,-4.28811 -2,-4.84961c0,0.09093 0.05778,-0.61776 0.15234,-1.4082c0.08694,-0.72678 0.20421,-1.67447 0.32031,-2.65234zM37.52734,31.93945c0.11602,0.97744 0.23343,1.92598 0.32031,2.65234c0.09456,0.79052 0.15234,1.49913 0.15234,1.4082c0,0.56296 -0.76639,2.11153 -2,4.85156v-5.9043c0,-0.88356 0.34543,-1.75475 1.04297,-2.50977c0.0013,-0.0014 0.00261,-0.00251 0.00391,-0.00391zM20.00977,36c-1.60384,0 -2.93555,1.28477 -2.93555,2.85156v1.27344c0,1.62482 1.35511,2.875 2.92578,2.875h5h5c1.57067,0 3,-1.20176 3,-2.875v-1.27344c0,-1.6523 -1.39426,-2.85156 -2.93555,-2.85156c-1.19392,0 -1.95481,0.33575 -2.54883,0.57031c-0.59402,0.23456 -1.12674,0.42969 -2.51562,0.42969c-1.38889,0 -1.92127,-0.19504 -2.50195,-0.42773c-0.58068,-0.23269 -1.32536,-0.57227 -2.48828,-0.57227zM30.06445,38c0.39271,0 0.93555,0.46586 0.93555,0.85156v1.27344c0,0.36476 -0.57067,0.875 -1,0.875v-2.99609c0.02424,-0.00027 0.03923,-0.00391 0.06445,-0.00391zM20,38.00195v2.99805c-0.42933,0 -0.92578,-0.46182 -0.92578,-0.875v-1.27344c0,-0.46629 0.34232,-0.84489 0.92578,-0.84961zM22,38.51563c0.48874,0.18004 1.11838,0.36096 2,0.44141v2.04297h-2zM28,38.51953v2.48047h-2v-2.04883c0.88175,-0.08019 1.50998,-0.25331 2,-0.43164z"></path></g></g></svg>