<svg xmlns="http://www.w3.org/2000/svg" xmlns:xlink="http://www.w3.org/1999/xlink" viewBox="0,0,256,256" width="128px" height="128px" fill-rule="nonzero" fill="#ffa07a"><g fill="#ffa07a" fill-rule="nonzero" stroke="none" stroke-width="1" stroke-linecap="butt" stroke-linejoin="miter" stroke-miterlimit="10" stroke-dasharray="" stroke-dashoffset="0" font-family="none" font-weight="none" font-size="none" text-anchor="none" style="mix-blend-mode: normal"><g transform="scale(4,4)"><path d="M32,1.9375c-4.21094,0 -8.42578,0.92188 -12.34766,2.76563l-0.85156,0.40234c-2.93359,1.37891 -5.0625,4.10156 -5.69531,7.27734l-1.89453,9.46094c-0.0625,0.30469 -0.25391,0.5625 -0.53516,0.69922c-1.03125,0.51953 -1.67578,1.55859 -1.67578,2.71484v11.48438c0,1.15625 0.64063,2.19531 1.74609,2.74609c0.25781,0.12891 0.44531,0.36328 0.51953,0.64063l3.64453,13.66797c0.12109,0.45313 0.34766,0.875 0.65625,1.22266l7.08984,7.97266c0.56641,0.64063 1.38672,1.00781 2.24219,1.00781h14.20313c0.85547,0 1.67578,-0.36719 2.24219,-1.00781l7.08984,-7.97266c0.30859,-0.34766 0.53516,-0.77344 0.65625,-1.22266l3.64453,-13.66797c0.07422,-0.27734 0.26172,-0.50781 0.58984,-0.67187c1.03125,-0.51953 1.67578,-1.55859 1.67578,-2.71484v-11.48437c0,-1.15625 -0.64453,-2.19531 -1.67578,-2.71484c-0.28125,-0.14062 -0.47266,-0.39453 -0.53516,-0.69922l-1.89453,-9.45703c-0.63281,-3.17969 -2.76172,-5.89844 -5.69531,-7.27734l-0.85156,-0.40625c-3.92578,-1.84375 -8.13672,-2.76562 -12.34766,-2.76562zM32,3.9375c3.92188,0 7.84375,0.85938 11.49609,2.57813l0.85156,0.40234c2.36328,1.10937 4.07813,3.30078 4.58984,5.85937l0.10938,0.54688c-0.89844,-0.81641 -1.90625,-1.51172 -3,-2.02734c-1.98047,-0.93359 -4.08594,-1.67578 -6.25391,-2.20312c-0.55078,-0.13281 -1.13672,-0.01953 -1.60547,0.30469c-0.47266,0.33594 -0.78125,0.85547 -0.84375,1.42969l-1.14062,10.28125c-0.05469,0.50781 -0.48437,0.89063 -0.99609,0.89063h-6.41797c-0.51172,0 -0.9375,-0.38281 -0.99219,-0.89062l-1.14062,-10.28125c-0.0625,-0.57422 -0.37109,-1.09766 -0.84375,-1.42969c-0.46875,-0.32812 -1.05469,-0.4375 -1.60547,-0.30469c-2.16406,0.52344 -4.27344,1.26563 -6.26562,2.20313c-1.09375,0.51563 -2.08984,1.21484 -2.98828,2.02734l0.10938,-0.54687c0.51563,-2.5625 2.22656,-4.75 4.58984,-5.86328l0.85156,-0.39844c3.65234,-1.71875 7.57422,-2.57812 11.49609,-2.57812zM31,7c-0.55078,0 -1,0.44922 -1,1c0,0.55078 0.44922,1 1,1h2c0.55078,0 1,-0.44922 1,-1c0,-0.55078 -0.44922,-1 -1,-1zM39.32031,11.03516c2.03906,0.49609 4.01563,1.19141 5.87109,2.07031c1.38672,0.65234 2.63281,1.63281 3.60547,2.83203l-2.21484,13.62891c-0.03906,0.22656 -0.20312,0.41016 -0.42187,0.46875c-9.26562,2.56641 -19.05859,2.56641 -28.32031,0c-0.21875,-0.0625 -0.38281,-0.24219 -0.41797,-0.45703l-2.21484,-13.625c0.97266,-1.20312 2.19922,-2.19141 3.58984,-2.84766c1.86719,-0.87891 3.84766,-1.57422 5.875,-2.05859l1.13672,10.28125c0.16797,1.52344 1.44922,2.67188 2.98438,2.67188h6.41797c1.53125,0 2.8125,-1.14844 2.98047,-2.67187zM31,12c-0.55078,0 -1,0.44922 -1,1c0,0.55078 0.44922,1 1,1h2c0.55078,0 1,-0.44922 1,-1c0,-0.55078 -0.44922,-1 -1,-1zM31,17c-0.55078,0 -1,0.44922 -1,1c0,0.55078 0.44922,1 1,1h2c0.55078,0 1,-0.44922 1,-1c0,-0.55078 -0.44922,-1 -1,-1zM13.73828,19.40234l1.70703,10.50781c0.02344,0.14453 0.08594,0.27344 0.13281,0.41016c-0.03906,0.04297 -0.08984,0.07422 -0.125,0.125l-0.94922,1.42578c-0.88281,1.32422 -0.57812,3.10938 0.69531,4.06641l1.42188,1.0625c0.85938,0.64453 1.92188,1 3,1h5.42969c1.14453,0 2.17188,-0.63672 2.68359,-1.65625l1.23438,-2.47266c1.01172,0.05469 2.01953,0.09375 3.03125,0.09375c0.77734,0 1.55859,-0.02734 2.33594,-0.05859l1.21484,2.4375c0.51172,1.01953 1.54297,1.65625 2.68359,1.65625h5.43359c1.07422,0 2.14063,-0.35547 3,-1l1.41797,-1.0625c1.27344,-0.95703 1.57813,-2.74219 0.69531,-4.06641l-0.65234,-0.97656c0.20313,-0.30078 0.36328,-0.625 0.42578,-0.99219l1.70703,-10.5l0.56641,2.83203c0.17969,0.91797 0.76563,1.67969 1.59766,2.09766c0.35547,0.17578 0.57422,0.53125 0.57422,0.92578v11.48438c0,0.39453 -0.21875,0.75 -0.64062,0.96094c-0.17969,0.08984 -0.94141,0.44922 -1.10547,0.63281l-6.98828,7.86328c-0.81641,0.91406 -1.26562,2.09766 -1.26562,3.32031v2.65234c0,0.26563 -0.10547,0.51953 -0.29297,0.70703l-0.59766,0.60156l-1.70703,-2.28125c-0.56641,-0.75 -1.46484,-1.19922 -2.40234,-1.19922h-12c-0.9375,0 -1.83594,0.44531 -2.40234,1.19922l-1.70703,2.28125l-0.59766,-0.60156c-0.1875,-0.1875 -0.29297,-0.44141 -0.29297,-0.70703v-2.65234c0,-1.22266 -0.44922,-2.40625 -1.26562,-3.32031l-6.98828,-7.86328c-0.16406,-0.1875 -0.97266,-0.56641 -1.17187,-0.66406c-0.35547,-0.17969 -0.57422,-0.53516 -0.57422,-0.92969v-11.48437c0,-0.39453 0.21875,-0.75 0.57422,-0.92578c0.83203,-0.41797 1.41406,-1.17969 1.59766,-2.09766zM16.94922,31.80859c0.11719,0.05469 0.23047,0.12109 0.35938,0.15625c3.12109,0.86719 6.30469,1.44531 9.50391,1.75l-0.86719,1.73438c-0.17187,0.33984 -0.51172,0.55078 -0.89453,0.55078h-5.42969c-0.64844,0 -1.28516,-0.21094 -1.80078,-0.59766l-1.41797,-1.06641c-0.42578,-0.31641 -0.53125,-0.91406 -0.23437,-1.35547zM46.47656,32.01953l0.64063,0.96094c0.29688,0.44141 0.19531,1.03906 -0.23047,1.35547l-1.41797,1.06641c-0.51953,0.38672 -1.15625,0.59766 -1.80078,0.59766h-5.43359c-0.38281,0 -0.72266,-0.21094 -0.89062,-0.55078l-0.84375,-1.67969c3.35938,-0.27734 6.69922,-0.85547 9.97656,-1.75zM14.05078,42.8125l4.19141,4.71484c0.48828,0.55078 0.75781,1.25781 0.75781,1.99219v2.65234c0,0.80078 0.3125,1.55469 0.87891,2.12109l0.60156,0.59766c0.40625,0.41016 0.97656,0.625 1.55078,0.58203c0.58203,-0.03906 1.11328,-0.33203 1.46094,-0.79687l1.70703,-2.27344c0.1875,-0.25391 0.48828,-0.40234 0.80078,-0.40234h12c0.3125,0 0.61328,0.14844 0.80078,0.40234l1.70703,2.27344c0.34766,0.46484 0.87891,0.75781 1.46094,0.79688c0.04688,0.00391 0.08984,0.00781 0.14063,0.00781c0.52734,0 1.03516,-0.21094 1.41016,-0.58984l0.60156,-0.59766c0.56641,-0.56641 0.87891,-1.32031 0.87891,-2.12109v-2.65234c0,-0.73437 0.26953,-1.44141 0.75781,-1.99219l4.19141,-4.71484l-2.79297,10.47266c-0.03906,0.14844 -0.11328,0.28906 -0.21875,0.40625l-7.08984,7.97266c-0.1875,0.21484 -0.46094,0.33594 -0.74609,0.33594h-14.20312c-0.28516,0 -0.55859,-0.12109 -0.74609,-0.33594l-7.08984,-7.97656c-0.10547,-0.11328 -0.17969,-0.25391 -0.21875,-0.40625zM27,56c-0.55078,0 -1,0.44922 -1,1v2c0,0.55078 0.44922,1 1,1c0.55078,0 1,-0.44922 1,-1v-2c0,-0.55078 -0.44922,-1 -1,-1zM32,56c-0.55078,0 -1,0.44922 -1,1v2c0,0.55078 0.44922,1 1,1c0.55078,0 1,-0.44922 1,-1v-2c0,-0.55078 -0.44922,-1 -1,-1zM37,56c-0.55078,0 -1,0.44922 -1,1v2c0,0.55078 0.44922,1 1,1c0.55078,0 1,-0.44922 1,-1v-2c0,-0.55078 -0.44922,-1 -1,-1z"></path></g></g></svg>