<svg xmlns="http://www.w3.org/2000/svg" xmlns:xlink="http://www.w3.org/1999/xlink" viewBox="0,0,256,256" width="96px" height="96px" fill-rule="nonzero" fill="#ffa07a"><g fill="#ffa07a" fill-rule="nonzero" stroke="none" stroke-width="1" stroke-linecap="butt" stroke-linejoin="miter" stroke-miterlimit="10" stroke-dasharray="" stroke-dashoffset="0" font-family="none" font-weight="none" font-size="none" text-anchor="none" style="mix-blend-mode: normal"><g transform="scale(4,4)"><path d="M32,7c11.589,0 20,8.832 20,21c0,13.135 -8.921,29 -20,29c-11.079,0 -20,-15.865 -20,-29c0,-12.168 8.411,-21 20,-21zM29.423,31.474c0.236,-0.708 -0.084,-1.482 -0.752,-1.816c-2.931,-1.466 -8.267,-5.942 -9.061,-12.901c-2.291,2.913 -3.61,6.773 -3.61,11.243c0,4.237 1.117,8.91 2.969,13.059c0.64,0.277 1.316,0.441 2.031,0.441c4.836,0 7.865,-8.352 8.423,-10.026zM45.031,41.059c1.852,-4.149 2.969,-8.822 2.969,-13.059c0,-4.47 -1.319,-8.33 -3.61,-11.242c-0.794,6.958 -6.13,11.435 -9.061,12.901c-0.668,0.334 -0.988,1.108 -0.752,1.816c0.558,1.673 3.587,10.025 8.423,10.025c0.715,0 1.391,-0.164 2.031,-0.441z"></path></g></g></svg>