<svg xmlns="http://www.w3.org/2000/svg" xmlns:xlink="http://www.w3.org/1999/xlink" viewBox="0,0,256,256" width="128px" height="128px" fill-rule="nonzero" fill="#ffa07a"><g fill="#ffa07a" fill-rule="nonzero" stroke="none" stroke-width="1" stroke-linecap="butt" stroke-linejoin="miter" stroke-miterlimit="10" stroke-dasharray="" stroke-dashoffset="0" font-family="none" font-weight="none" font-size="none" text-anchor="none" style="mix-blend-mode: normal"><g transform="scale(4,4)"><path d="M32,2c-12.71,0 -20,8.383 -20,23c0,16.759 8.921,37 20,37c1.2379,0 3.04695,-0.01104 4.33789,-0.98828c1.9547,0.62332 4.16935,0.98828 6.66211,0.98828c6.28,0 12,-4.29 12,-9c0,-0.704 0.072,-3 1,-3c0.928,0 1,2.296 1,3c0,0.552 0.447,1 1,1c1.717,0 3,-2.112 3,-4c0,-4.383 -2.243,-7 -6,-7c-3.379,0 -6,3.763 -6,7c0,1.74072 -2.85642,3.57948 -5.23633,3.92773c4.96262,-7.40452 8.23633,-18.7876 8.23633,-28.92773c0,-14.617 -7.29,-23 -20,-23zM32,4c11.2193,0 17.54939,6.98632 17.96094,19.68164c-0.03458,0.10138 -0.06445,0.20529 -0.06445,0.31836c0,9.056 -8.36248,17 -17.89648,17c-9.537,0 -17.90234,-7.944 -17.90234,-17c0,-0.104 -0.02914,-0.19865 -0.05859,-0.29297c0.40392,-12.71139 6.73418,-19.70703 17.96094,-19.70703zM8.50977,9.93164c-0.38953,-0.01566 -0.76981,0.19922 -0.94531,0.57422c-0.235,0.499 -0.01953,1.09703 0.48047,1.33203l1.80859,0.85156c0.138,0.065 0.28278,0.0957 0.42578,0.0957c0.375,0 0.7353,-0.21222 0.9043,-0.57422c0.235,-0.499 0.02148,-1.09508 -0.47852,-1.33008l-1.81055,-0.85351c-0.125,-0.059 -0.25492,-0.09048 -0.38477,-0.0957zM55.49414,9.9375c-0.12977,0.00531 -0.26172,0.0362 -0.38672,0.0957l-1.80859,0.85352c-0.5,0.236 -0.71547,0.83008 -0.48047,1.33008c0.17,0.362 0.53025,0.57422 0.90625,0.57422c0.142,0 0.28583,-0.0317 0.42383,-0.0957l1.81055,-0.85156c0.5,-0.236 0.71352,-0.83008 0.47852,-1.33008c-0.17625,-0.375 -0.55406,-0.59211 -0.94336,-0.57617zM22,14c-3.364,0 -6,3.514 -6,8c0,8.767 4.859,14 13,14c0.553,0 1,-0.448 1,-1c0,-7.289 -3.72631,-10.8617 -6.44531,-13.4707c-1.428,-1.369 -2.55469,-2.4513 -2.55469,-3.5293c0,-0.634 0.67916,-1.849 1.03516,-2c0.536,-0.02 0.96484,-0.46 0.96484,-1c0,-0.552 -0.447,-1 -1,-1zM42,14c-0.553,0 -1.02539,0.44309 -1.02539,0.99609c0,0.519 0.372,0.94319 0.875,0.99219c0.037,0.006 0.07623,0.01072 0.11523,0.01172c0.356,0.151 1.03516,1.366 1.03516,2c0,1.078 -1.12669,2.1603 -2.55469,3.5293c-2.719,2.609 -6.44531,6.1817 -6.44531,13.4707c0,0.552 0.447,1 1,1c8.141,0 13,-5.233 13,-14c0,-4.486 -2.636,-8 -6,-8zM6.62109,14.70313c-0.38494,0.06014 -0.71666,0.34605 -0.81641,0.74805c-0.133,0.536 0.19252,1.07989 0.72852,1.21289l1.94141,0.48242c0.081,0.021 0.16219,0.03125 0.24219,0.03125c0.448,0 0.8567,-0.30377 0.9707,-0.75977c0.133,-0.536 -0.19447,-1.07989 -0.73047,-1.21289l-1.93945,-0.48242c-0.13375,-0.03425 -0.26817,-0.03958 -0.39648,-0.01953zM57.38281,14.7207c-0.12819,-0.02023 -0.26298,-0.01567 -0.39648,0.01758l-1.93945,0.48242c-0.536,0.133 -0.86347,0.67689 -0.73047,1.21289c0.114,0.455 0.5227,0.75781 0.9707,0.75781c0.08,0 0.16119,-0.0083 0.24219,-0.0293l1.94141,-0.48242c0.536,-0.133 0.86152,-0.67494 0.72852,-1.21094c-0.1005,-0.402 -0.43184,-0.68734 -0.81641,-0.74805zM19,17.99023v0.00977c0,1.931 1.46892,3.34066 3.16992,4.97266c2.455,2.355 5.47773,5.25309 5.80273,10.99609c-8.976,-0.561 -9.97266,-8.48975 -9.97266,-11.96875c0,-1.555 0.375,-2.95477 1,-4.00977zM45,17.99023c0.625,1.055 1,2.45477 1,4.00977c0,3.479 -0.99666,11.40775 -9.97266,11.96875c0.325,-5.744 3.34773,-8.64209 5.80273,-10.99609c1.701,-1.632 3.16992,-3.04166 3.16992,-4.97266zM6.08594,19.69336c-0.541,-0.021 -1.02183,0.40017 -1.04883,0.95117c-0.028,0.551 0.39722,1.01987 0.94922,1.04688l1.99805,0.09961c0.017,0.001 0.03378,0.00195 0.05078,0.00195c0.529,0 0.97205,-0.41717 0.99805,-0.95117c0.028,-0.551 -0.39917,-1.02183 -0.95117,-1.04883zM57.91602,19.7207l-1.99609,0.0957c-0.552,0.027 -0.97717,0.49683 -0.95117,1.04883c0.026,0.534 0.46805,0.95117 0.99805,0.95117c0.016,0 0.03378,-0.00195 0.05078,-0.00195l1.99609,-0.0957c0.552,-0.027 0.97717,-0.49683 0.95117,-1.04883c-0.027,-0.552 -0.50383,-0.97722 -1.04883,-0.94922zM8.10742,24.46484l-1.97852,0.28516c-0.547,0.078 -0.92761,0.58581 -0.84961,1.13281c0.072,0.498 0.50123,0.85547 0.99023,0.85547c0.046,0 0.09258,-0.00377 0.14258,-0.00977l1.98047,-0.28516c0.547,-0.078 0.92566,-0.58386 0.84766,-1.13086c-0.08,-0.546 -0.57781,-0.92666 -1.13281,-0.84766zM55.89063,24.49609c-0.546,-0.08 -1.05577,0.2997 -1.13477,0.8457c-0.08,0.547 0.2997,1.05477 0.8457,1.13477l1.97852,0.28711c0.049,0.007 0.09848,0.00977 0.14648,0.00977c0.488,0 0.91628,-0.35747 0.98828,-0.85547c0.08,-0.547 -0.2997,-1.05477 -0.8457,-1.13477zM9.42188,28.98438c-0.12967,-0.00781 -0.26428,0.00844 -0.39453,0.05469l-1.88477,0.66602c-0.52,0.183 -0.79533,0.75439 -0.61133,1.27539c0.145,0.411 0.53136,0.66797 0.94336,0.66797c0.11,0 0.22298,-0.01959 0.33398,-0.05859l1.88477,-0.66406c0.52,-0.183 0.79533,-0.75439 0.61133,-1.27539c-0.138,-0.39075 -0.4938,-0.64258 -0.88281,-0.66602zM54.56445,29.02344c-0.38892,0.02283 -0.74211,0.27602 -0.88086,0.66602c-0.185,0.52 0.08642,1.09139 0.60742,1.27539l1.88672,0.66797c0.11,0.039 0.22398,0.05859 0.33398,0.05859c0.412,0 0.79641,-0.25602 0.94141,-0.66602c0.185,-0.52 -0.08642,-1.09334 -0.60742,-1.27734l-1.88672,-0.66797c-0.1305,-0.04675 -0.26489,-0.06425 -0.39453,-0.05664zM49.29492,33.21875c-1.26903,7.76248 -4.16467,15.50648 -7.90039,20.60352c-2.13542,-0.41519 -4.43625,-1.66532 -5.15625,-4.1582l3.15039,-7.20703l2.86719,3.20703c0.237,0.267 0.59917,0.3865 0.95117,0.3125c0.35,-0.073 0.63414,-0.32797 0.74414,-0.66797l2.86133,-8.80469c0.94056,-1.01064 1.77813,-2.10767 2.48242,-3.28516zM14.70117,33.2207c0.69204,1.15652 1.51321,2.23462 2.43359,3.23047l1.88477,8.75977c0.086,0.399 0.40659,0.70444 0.80859,0.77344c0.408,0.071 0.80748,-0.11294 1.02148,-0.46094l1.96484,-3.1875l3.25781,8.04102c0.05758,0.142 0.15261,0.25646 0.26172,0.35547c0.81848,3.67796 3.29227,7.10059 7.34961,9.1875c-0.58167,0.07678 -1.19265,0.08008 -1.68359,0.08008c-8.04696,0 -15.12171,-13.26148 -17.29883,-26.7793zM19.68359,38.7832c0.66741,0.51177 1.37293,0.97551 2.10352,1.4043l-1.33398,2.16797zM43.86328,39.10742l-1.27539,3.92773l-1.8457,-2.0625c1.10034,-0.53079 2.14295,-1.15626 3.12109,-1.86523zM24.67383,41.59961c1.5085,0.59081 3.10111,1.00036 4.75195,1.21484l-2.33789,4.74219zM37.28711,42.26758l-2.34961,5.37891l-2.34766,-4.66211c1.61725,-0.04775 3.18789,-0.30338 4.69727,-0.7168zM30.9668,44.21484l3.13867,6.23438c0.09998,0.19762 0.26423,0.34517 0.45508,0.43945c1.34811,3.33323 4.97322,5.11133 8.43945,5.11133c3.222,0 8,-2.52 8,-6c0,-2.25 1.846,-5 4,-5c3.306,0 4,2.719 4,5c0,0.347 -0.07173,0.66631 -0.17773,0.94531c-0.493,-2.514 -1.90927,-2.94531 -2.82227,-2.94531c-1.12,0 -3,0.649 -3,5c0,3.237 -4.368,7 -10,7c-9.1944,0 -13.91198,-4.95146 -14.82422,-10.12305z"></path></g></g></svg>