<svg xmlns="http://www.w3.org/2000/svg" xmlns:xlink="http://www.w3.org/1999/xlink" viewBox="0,0,256,256" width="96px" height="96px" fill-rule="nonzero" fill="#ffa07a"><g fill="#ffa07a" fill-rule="nonzero" stroke="none" stroke-width="1" stroke-linecap="butt" stroke-linejoin="miter" stroke-miterlimit="10" stroke-dasharray="" stroke-dashoffset="0" font-family="none" font-weight="none" font-size="none" text-anchor="none" style="mix-blend-mode: normal"><g transform="scale(5.33333,5.33333)"><path d="M6.87305,1.51758c-0.67096,0.01659 -1.24925,0.47684 -1.41602,1.12695c-2.38178,9.30163 0.85906,17.23051 2.69922,21.45117c0.00506,0.01178 0.01027,0.0235 0.01563,0.03516c0.63474,1.36004 0.94102,3.00401 1.04102,4.5957l0.42969,7.39453l-0.00195,-0.08789c0,1.40902 0.63088,2.64846 1.50977,3.52734c0.07436,0.07343 0.15618,0.13889 0.24414,0.19531l3.99805,2.59961c1.33236,1.08132 2.34043,1.90905 3.00586,2.41602c0.58657,0.44688 1.04915,0.76474 1.61328,0.9707c0.56129,0.20493 1.10754,0.21833 1.56445,0.20898c0.0023,-0.00005 0.00551,0.00195 0.00781,0.00195c1.50727,0.08118 3.39064,0.08332 4.89258,0.04297c0.60323,0.01186 1.26537,-0.10654 1.85938,-0.375c0.5952,-0.269 1.12563,-0.64028 1.77344,-1.13867c0.90652,-0.69742 2.30036,-1.84088 4.07813,-3.26172l2.41406,-1.57031c0.08805,-0.05704 0.16988,-0.12315 0.24414,-0.19727c0.87889,-0.87889 1.51172,-2.11637 1.51172,-3.52539l-0.00391,0.08789l0.42969,-7.28125c0.09947,-1.59423 0.40519,-3.24115 1.04102,-4.60352c0.00536,-0.01165 0.01057,-0.02337 0.01563,-0.03516c1.8378,-4.21526 5.08884,-12.1059 2.5918,-21.41211c-0.15968,-0.59268 -0.66431,-1.02828 -1.27395,-1.0997c-0.60964,-0.07142 -1.20129,0.23576 -1.49363,0.77548c-1.11531,2.0625 -2.23187,3.83437 -3.32227,5.38477c-1.8289,-2.94358 -5.56721,-5.75977 -12.3125,-5.75977c-6.81723,0 -10.54758,2.88355 -12.36133,5.85742c-1.13125,-1.58964 -2.2877,-3.40916 -3.43945,-5.53906c-0.26846,-0.49556 -0.79203,-0.79884 -1.35547,-0.78516zM24.0293,4.98438c6.98257,0 9.26815,2.86547 10.31445,5.39844c-0.90108,1.10194 -1.77164,2.06418 -2.58789,2.89453c-2.31965,2.35973 -4.15975,3.66578 -5.41602,4.90625c-1.15526,0.99386 -1.53634,2.32733 -1.76953,3.37891l-0.57031,2.57227l-0.57422,-2.57227c-0.23369,-1.04881 -0.6136,-2.38287 -1.76758,-3.37695c-1.26051,-1.24491 -3.12648,-2.56193 -5.47266,-4.9375c-0.79014,-0.80005 -1.6306,-1.72424 -2.49805,-2.77148c1.00982,-2.56303 3.27131,-5.49219 10.3418,-5.49219zM7.86914,7.3125c2.15872,3.34608 4.29879,6.13652 6.18164,8.04297c2.54787,2.5798 4.68169,4.13872 5.56445,5.02148c0.02699,0.0271 0.055,0.05316 0.08398,0.07813c0.33964,0.29119 0.61106,0.91705 0.79883,1.75977l0.43555,1.94922c-0.90869,-0.8862 -2.39703,-2.15039 -3.65234,-2.15039c-1.904,0 -2.23828,1.04536 -2.23828,1.94336c0,0.149 1.45538,1.04883 3.35938,1.04883h2.71875l0.62109,2.78516c-1.94806,-1.06276 -4.21911,-2.00279 -7.10742,-2.55273c-0.56915,-0.10778 -1.1495,0.12175 -1.49095,0.58968c-0.34145,0.46793 -0.38299,1.09064 -0.1067,1.59977l1.9707,3.625c-0.00043,0.02754 -0.00145,0.04224 -0.00195,0.07227c-0.0042,0.297 -0.0083,0.71235 -0.01172,1.21094c-0.0067,0.99717 -0.01104,2.32239 -0.01367,3.64844c-0.00157,0.80102 -0.00064,1.4994 0,2.20508c-0.56784,-0.4519 -0.89105,-0.7231 -1.57617,-1.25977c-0.19505,-0.15267 -0.80664,-1.39303 -0.80664,-1.70117h-0.00195l-0.38672,-6.67578c0,-0.00195 0,-0.00391 0,-0.00586c-0.11454,-1.83572 -0.45418,-3.83391 -1.31836,-5.68555c-1.50543,-3.4583 -3.55632,-9.02345 -3.02148,-15.54883zM40.05859,7.32227c0.61093,6.53035 -1.44161,12.06702 -2.95312,15.53906c-0.86418,1.85164 -1.20187,3.84978 -1.31641,5.68555c0,0.00195 0,0.00391 0,0.00586l-0.36523,6.17773c0,0.27191 -0.08265,0.87419 -0.23828,1.36523c-0.15563,0.49104 -0.44486,0.85891 -0.40234,0.82617c-0.74422,0.57365 -1.16878,0.92473 -1.77734,1.40625l0.01367,-7.26172l1.94727,-3.65039c0.27169,-0.5095 0.22684,-1.12971 -0.11532,-1.59483c-0.34217,-0.46511 -0.92091,-0.69256 -1.48819,-0.58486c-2.88854,0.54998 -5.15724,1.49184 -7.10156,2.55469l0.61719,-2.78516h2.72266c1.904,0 3.36133,-0.89983 3.36133,-1.04883c0,-0.898 -0.33624,-1.94336 -2.24023,-1.94336c-1.25794,0 -2.75029,1.26994 -3.6582,2.15625l0.43359,-1.95703c0.18642,-0.84064 0.45869,-1.4662 0.79883,-1.75781c0.02898,-0.02496 0.057,-0.05102 0.08398,-0.07812c0.88648,-0.88647 2.99156,-2.4304 5.51367,-4.99609c1.87138,-1.90371 4.00581,-4.69797 6.16406,-8.05859zM30.59375,29.24219l-0.39648,0.74219c-0.11518,0.21649 -0.17554,0.45791 -0.17578,0.70313l-0.02148,10.0293c-0.64613,0.52596 -1.30574,1.06747 -1.7207,1.38672c-0.57694,0.44386 -0.953,0.68164 -1.17773,0.7832c-0.22473,0.10157 -0.29411,0.11497 -0.56641,0.10938h-0.03711h-0.03516c-1.47477,0.04099 -3.43271,0.04056 -4.82422,-0.03906l-0.05859,-0.00391l-0.05859,0.00195c-0.3742,0.0079 -0.40232,-0.00076 -0.48047,-0.0293c-0.07815,-0.02853 -0.32266,-0.15695 -0.82422,-0.53906c-0.48285,-0.36787 -1.20946,-0.96417 -2.23242,-1.79687c-0.00199,-0.26752 -0.00277,-0.56364 -0.00391,-0.96484c-0.0028,-0.9892 -0.0026,-2.31231 0,-3.63477c0.0026,-1.32246 0.007,-2.64361 0.01367,-3.63281c0.0033,-0.4946 0.0077,-0.90709 0.01172,-1.18945c0.002,-0.14118 0.00396,-0.25125 0.00586,-0.31445c0.00072,-0.02503 0.00185,-0.03439 0.00195,-0.03711c0.00002,-0.00071 0.0001,-0.0115 0,-0.00977c0.02229,-0.28868 -0.03944,-0.57765 -0.17773,-0.83203l-0.39063,-0.7207c2.43175,0.86449 4.47121,1.88366 5.53125,2.88086c0.02467,0.02232 0.05007,0.04382 0.07617,0.06445c0.02972,0.02395 0.06034,0.04675 0.0918,0.06836c0.01604,0.01204 0.03232,0.02376 0.04883,0.03516c0.02371,0.01434 0.0478,0.02801 0.07227,0.04102c0.01738,0.01012 0.03496,0.01989 0.05273,0.0293c0.03008,0.01601 0.0607,0.03099 0.0918,0.04492c0.0123,0.00537 0.02467,0.01058 0.03711,0.01563c0.04291,0.01698 0.08657,0.03197 0.13086,0.04492c0.04821,0.01416 0.0971,0.0259 0.14648,0.03516c0.03817,0.00735 0.07661,0.01321 0.11523,0.01758c0.0182,0.00164 0.03644,0.00294 0.05469,0.00391c0.0338,0.00245 0.06767,0.00375 0.10156,0.00391c0.01106,0.00077 0.02213,0.00143 0.0332,0.00195c0.04244,-0.00146 0.08479,-0.00472 0.12695,-0.00977c0.00912,-0.00057 0.01824,-0.00122 0.02734,-0.00195c0.03008,-0.00365 0.06004,-0.00821 0.08984,-0.01367c0.02487,-0.00458 0.04961,-0.00979 0.07422,-0.01562c0.02556,-0.00584 0.05096,-0.01236 0.07617,-0.01953c0.01373,-0.00371 0.0274,-0.00762 0.04102,-0.01172c0.00457,-0.00193 0.00912,-0.00388 0.01367,-0.00586c0.02896,-0.00954 0.05762,-0.01996 0.08594,-0.03125c0.02569,-0.01036 0.05109,-0.02143 0.07617,-0.0332c0.00326,-0.00129 0.00652,-0.00259 0.00977,-0.00391c0.00588,-0.00322 0.01174,-0.00647 0.01758,-0.00977c0.03316,-0.01573 0.06574,-0.03267 0.09766,-0.05078c0.01715,-0.01072 0.03408,-0.02179 0.05078,-0.0332c0.0259,-0.01615 0.0513,-0.03308 0.07617,-0.05078c0.00458,-0.00323 0.00913,-0.00649 0.01367,-0.00977c0.00921,-0.0077 0.01832,-0.01552 0.02734,-0.02344c0.02676,-0.0206 0.05282,-0.0421 0.07813,-0.06445c0.00327,-0.00259 0.00652,-0.0052 0.00977,-0.00781c0.00393,-0.00388 0.00783,-0.00779 0.01172,-0.01172c1.06687,-1.00363 3.11584,-2.02505 5.56055,-2.89062zM17.98438,31.00391c-0.0027,0.01305 -0.0001,0.0088 -0.00391,0.02539c-0.00049,0.0021 -0.00321,0.009 -0.00391,0.01172c0.00276,-0.01234 0.00537,-0.02471 0.00781,-0.03711zM23.89063,34.21289c-1.562,0 -2.82053,0.30236 -3.64453,0.56836c-0.273,0.088 -0.49447,0.29359 -0.60547,0.55859c-0.111,0.265 -0.10066,0.56331 0.02734,0.82031l0.08398,0.16797c0.218,0.436 0.72255,0.64514 1.18555,0.49414c0.653,-0.213 1.6587,-0.4668 2.8457,-0.4668c1.345,0 2.41013,0.24312 3.07813,0.45313c0.462,0.145 0.95878,-0.06505 1.17578,-0.49805l0.08203,-0.16211c0.129,-0.258 0.13739,-0.56017 0.02539,-0.82617c-0.112,-0.266 -0.33633,-0.46769 -0.61133,-0.55469c-0.836,-0.263 -2.10958,-0.55469 -3.64258,-0.55469z"></path></g></g></svg>